# xmcd
#
# Track frame offsets:
#	150
#	21723
#	42458
#	58693
#	87803
#	104735
#	127675
#	158275
#	171528
#	220363
#
# Disc length: 3401 seconds
#
# Revision: 0
# Processed by: cddbd v1.5.2PL0 Copyright (c) Steve Scherf et al.
# Submitted via: FairStars CD Ripper 1.01
#
DISCID=8a0d470a
DTITLE=Jerry Lightfoot - Texistentialism
DYEAR=2005
DGENRE=Blues
TTITLE0=Down Highway 59
TTITLE1=Handshake With The Blues
TTITLE2=Both Hands On The Wheel
TTITLE3=Generous To A Fault
TTITLE4=Snakes In The Sugarbowl
TTITLE5=Closer To The Truth
TTITLE6=Around And Between
TTITLE7=Junior Jumped In
TTITLE8=Monkey Got A Gun
TTITLE9=Golden Stairs
EXTD=
EXTT0=
EXTT1=
EXTT2=
EXTT3=
EXTT4=
EXTT5=
EXTT6=
EXTT7=
EXTT8=
EXTT9=
PLAYORDER=
